<?xml version="1.0" standalone="no"?>
<!DOCTYPE svg PUBLIC "-//W3C//DTD SVG 20010904//EN"
 "http://www.w3.org/TR/2001/REC-SVG-20010904/DTD/svg10.dtd">
<svg version="1.0" xmlns="http://www.w3.org/2000/svg"
 width="24.000000pt" height="24.000000pt" viewBox="0 0 24.000000 24.000000"
 preserveAspectRatio="xMidYMid meet">

<g transform="translate(0.000000,24.000000) scale(0.100000,-0.100000)"
fill="#000000" stroke="none">
<path d="M75 196 c-47 -21 -72 -53 -58 -75 9 -14 9 -21 0 -30 -16 -16 0 -26
18 -11 12 10 16 9 21 -3 3 -9 3 -20 0 -26 -4 -5 -2 -12 3 -15 5 -3 11 1 15 9
8 22 36 18 36 -5 0 -11 5 -20 10 -20 6 0 10 9 10 20 0 24 25 27 34 4 3 -8 10
-13 15 -9 6 3 8 12 5 20 -9 23 5 38 22 24 18 -14 32 -3 17 12 -9 9 -9 16 0 30
14 22 -12 55 -60 75 -39 17 -50 17 -88 0z"/>
</g>
</svg>
